<?xml version="1.0" encoding="UTF-8" standalone="no"?>
<!DOCTYPE svg PUBLIC "-//W3C//DTD SVG 1.1//EN"
 "http://www.w3.org/Graphics/SVG/1.1/DTD/svg11.dtd">
<!-- Generated by graphviz version 14.1.2 (20260124.0452)
 -->
<!-- Title: HiClawOverview Pages: 1 -->
<svg width="961pt" height="426pt"
 viewBox="0.00 0.00 961.00 426.00" xmlns="http://www.w3.org/2000/svg" xmlns:xlink="http://www.w3.org/1999/xlink">
<g id="graph0" class="graph" transform="scale(1 1) rotate(0) translate(21.6 404.35)">
<title>HiClawOverview</title>
<polygon fill="white" stroke="none" points="-21.6,21.6 -21.6,-404.35 939.73,-404.35 939.73,21.6 -21.6,21.6"/>
<text xml:space="preserve" text-anchor="middle" x="459.06" y="-357.85" font-family="Microsoft YaHei" font-size="22.00">HiClaw 协作空间</text>
<!-- Human -->
<g id="node1" class="node">
<title>Human</title>
<path fill="#fff7ed" stroke="#334155" stroke-width="1.6" d="M104.5,-286.75C104.5,-286.75 12,-286.75 12,-286.75 6,-286.75 0,-280.75 0,-274.75 0,-274.75 0,-253.25 0,-253.25 0,-247.25 6,-241.25 12,-241.25 12,-241.25 104.5,-241.25 104.5,-241.25 110.5,-241.25 116.5,-247.25 116.5,-253.25 116.5,-253.25 116.5,-274.75 116.5,-274.75 116.5,-280.75 110.5,-286.75 104.5,-286.75"/>
<text xml:space="preserve" text-anchor="middle" x="58.25" y="-269.45" font-family="Microsoft YaHei" font-size="14.00">人类</text>
<text xml:space="preserve" text-anchor="middle" x="58.25" y="-250.7" font-family="Microsoft YaHei" font-size="14.00">提需求 / 看进度</text>
</g>
<!-- Manager -->
<g id="node2" class="node">
<title>Manager</title>
<path fill="#fef3c7" stroke="#334155" stroke-width="1.6" d="M323.62,-286.75C323.62,-286.75 216.88,-286.75 216.88,-286.75 210.88,-286.75 204.88,-280.75 204.88,-274.75 204.88,-274.75 204.88,-253.25 204.88,-253.25 204.88,-247.25 210.88,-241.25 216.88,-241.25 216.88,-241.25 323.62,-241.25 323.62,-241.25 329.62,-241.25 335.62,-247.25 335.62,-253.25 335.62,-253.25 335.62,-274.75 335.62,-274.75 335.62,-280.75 329.62,-286.75 323.62,-286.75"/>
<text xml:space="preserve" text-anchor="middle" x="270.25" y="-269.45" font-family="Microsoft YaHei" font-size="14.00">Manager</text>
<text xml:space="preserve" text-anchor="middle" x="270.25" y="-250.7" font-family="Microsoft YaHei" font-size="14.00">项目经理 / 调度者</text>
</g>
<!-- Human&#45;&gt;Manager -->
<g id="edge1" class="edge">
<title>Human&#45;&gt;Manager</title>
<path fill="none" stroke="#475569" stroke-width="1.5" d="M117.02,-264C140.93,-264 168.87,-264 194.29,-264"/>
<polygon fill="#475569" stroke="#475569" stroke-width="1.5" points="194,-266.8 202,-264 194,-261.2 194,-266.8"/>
<text xml:space="preserve" text-anchor="middle" x="160.69" y="-272.1" font-family="Microsoft YaHei" font-size="12.00">提出需求</text>
</g>
<!-- Matrix -->
<g id="node5" class="node">
<title>Matrix</title>
<path fill="#dcfce7" stroke="#334155" stroke-width="1.6" d="M262.25,-170.75C262.25,-170.75 156.25,-170.75 156.25,-170.75 150.25,-170.75 144.25,-164.75 144.25,-158.75 144.25,-158.75 144.25,-118.5 144.25,-118.5 144.25,-112.5 150.25,-106.5 156.25,-106.5 156.25,-106.5 262.25,-106.5 262.25,-106.5 268.25,-106.5 274.25,-112.5 274.25,-118.5 274.25,-118.5 274.25,-158.75 274.25,-158.75 274.25,-164.75 268.25,-170.75 262.25,-170.75"/>
<text xml:space="preserve" text-anchor="middle" x="209.25" y="-153.45" font-family="Microsoft YaHei" font-size="14.00">Matrix</text>
<text xml:space="preserve" text-anchor="middle" x="209.25" y="-134.7" font-family="Microsoft YaHei" font-size="14.00">通信线</text>
<text xml:space="preserve" text-anchor="middle" x="209.25" y="-115.95" font-family="Microsoft YaHei" font-size="14.00">群聊、通知、追问</text>
</g>
<!-- Human&#45;&gt;Matrix -->
<g id="edge4" class="edge">
<title>Human&#45;&gt;Matrix</title>
<path fill="none" stroke="#475569" stroke-width="1.5" d="M62.3,-240.75C65.81,-226.94 72.14,-209.62 83.25,-197.75 97.19,-182.85 115.7,-171.45 134.22,-162.86"/>
<polygon fill="#475569" stroke="#475569" stroke-width="1.5" points="135.32,-165.44 141.51,-159.66 133.06,-160.31 135.32,-165.44"/>
<text xml:space="preserve" text-anchor="middle" x="107.25" y="-202.85" font-family="Microsoft YaHei" font-size="12.00">查看进度</text>
</g>
<!-- WorkerA -->
<g id="node3" class="node">
<title>WorkerA</title>
<path fill="#ede9fe" stroke="#334155" stroke-width="1.6" d="M543,-286.75C543,-286.75 435.5,-286.75 435.5,-286.75 429.5,-286.75 423.5,-280.75 423.5,-274.75 423.5,-274.75 423.5,-253.25 423.5,-253.25 423.5,-247.25 429.5,-241.25 435.5,-241.25 435.5,-241.25 543,-241.25 543,-241.25 549,-241.25 555,-247.25 555,-253.25 555,-253.25 555,-274.75 555,-274.75 555,-280.75 549,-286.75 543,-286.75"/>
<text xml:space="preserve" text-anchor="middle" x="489.25" y="-269.45" font-family="Microsoft YaHei" font-size="14.00">Worker A</text>
<text xml:space="preserve" text-anchor="middle" x="489.25" y="-250.7" font-family="Microsoft YaHei" font-size="14.00">前端 / 后端 / 测试</text>
</g>
<!-- Manager&#45;&gt;WorkerA -->
<g id="edge2" class="edge">
<title>Manager&#45;&gt;WorkerA</title>
<path fill="none" stroke="#475569" stroke-width="1.5" d="M336.25,-264C360.39,-264 387.88,-264 412.84,-264"/>
<polygon fill="#475569" stroke="#475569" stroke-width="1.5" points="412.73,-266.8 420.73,-264 412.73,-261.2 412.73,-266.8"/>
<text xml:space="preserve" text-anchor="middle" x="379.56" y="-272.1" font-family="Microsoft YaHei" font-size="12.00">拆分任务</text>
</g>
<!-- WorkerB -->
<g id="node4" class="node">
<title>WorkerB</title>
<path fill="#e0f2fe" stroke="#334155" stroke-width="1.6" d="M715,-286.75C715,-286.75 607.5,-286.75 607.5,-286.75 601.5,-286.75 595.5,-280.75 595.5,-274.75 595.5,-274.75 595.5,-253.25 595.5,-253.25 595.5,-247.25 601.5,-241.25 607.5,-241.25 607.5,-241.25 715,-241.25 715,-241.25 721,-241.25 727,-247.25 727,-253.25 727,-253.25 727,-274.75 727,-274.75 727,-280.75 721,-286.75 715,-286.75"/>
<text xml:space="preserve" text-anchor="middle" x="661.25" y="-269.45" font-family="Microsoft YaHei" font-size="14.00">Worker B</text>
<text xml:space="preserve" text-anchor="middle" x="661.25" y="-250.7" font-family="Microsoft YaHei" font-size="14.00">文档 / 运维 / 数据</text>
</g>
<!-- Manager&#45;&gt;WorkerB -->
<g id="edge3" class="edge">
<title>Manager&#45;&gt;WorkerB</title>
<path fill="none" stroke="#475569" stroke-width="1.5" stroke-dasharray="5,2" d="M326.11,-287.52C358.98,-300.07 401.73,-314.22 441.25,-320.58 498.02,-329.73 561.49,-310.11 605.61,-291.51"/>
<polygon fill="#475569" stroke="#475569" stroke-width="1.5" points="606.68,-294.1 612.91,-288.35 604.46,-288.96 606.68,-294.1"/>
<text xml:space="preserve" text-anchor="middle" x="465.25" y="-318.85" font-family="Microsoft YaHei" font-size="12.00">并行派工</text>
</g>
<!-- Manager&#45;&gt;Matrix -->
<g id="edge5" class="edge">
<title>Manager&#45;&gt;Matrix</title>
<path fill="none" stroke="#475569" stroke-width="1.5" d="M204.31,-252.77C181.84,-245.78 159.01,-234.03 145.5,-214.25 137.22,-202.13 141.73,-189.72 151.36,-178.58"/>
<polygon fill="#475569" stroke="#475569" stroke-width="1.5" points="153.15,-180.76 156.76,-173.09 149.15,-176.83 153.15,-180.76"/>
<text xml:space="preserve" text-anchor="middle" x="181.88" y="-202.85" font-family="Microsoft YaHei" font-size="12.00">派任务 / 催办</text>
</g>
<!-- MinIO -->
<g id="node6" class="node">
<title>MinIO</title>
<path fill="#dbeafe" stroke="#334155" stroke-width="1.6" d="M556.5,-170.75C556.5,-170.75 422,-170.75 422,-170.75 416,-170.75 410,-164.75 410,-158.75 410,-158.75 410,-118.5 410,-118.5 410,-112.5 416,-106.5 422,-106.5 422,-106.5 556.5,-106.5 556.5,-106.5 562.5,-106.5 568.5,-112.5 568.5,-118.5 568.5,-118.5 568.5,-158.75 568.5,-158.75 568.5,-164.75 562.5,-170.75 556.5,-170.75"/>
<text xml:space="preserve" text-anchor="middle" x="489.25" y="-153.45" font-family="Microsoft YaHei" font-size="14.00">MinIO</text>
<text xml:space="preserve" text-anchor="middle" x="489.25" y="-134.7" font-family="Microsoft YaHei" font-size="14.00">文件线</text>
<text xml:space="preserve" text-anchor="middle" x="489.25" y="-115.95" font-family="Microsoft YaHei" font-size="14.00">任务、结果、共享资料</text>
</g>
<!-- Manager&#45;&gt;MinIO -->
<g id="edge8" class="edge">
<title>Manager&#45;&gt;MinIO</title>
<path fill="none" stroke="#475569" stroke-width="1.5" d="M310.16,-240.51C341.92,-222.63 387,-197.23 423.98,-176.39"/>
<polygon fill="#475569" stroke="#475569" stroke-width="1.5" points="425.14,-178.96 430.74,-172.59 422.39,-174.08 425.14,-178.96"/>
<text xml:space="preserve" text-anchor="middle" x="421.38" y="-202.85" font-family="Microsoft YaHei" font-size="12.00">写 spec / meta</text>
</g>
<!-- WorkerA&#45;&gt;Matrix -->
<g id="edge6" class="edge">
<title>WorkerA&#45;&gt;Matrix</title>
<path fill="none" stroke="#475569" stroke-width="1.5" d="M422.78,-252.74C385.91,-245.34 340.02,-233.23 302.25,-214.25 283.33,-204.75 264.69,-190.93 249.12,-177.76"/>
<polygon fill="#475569" stroke="#475569" stroke-width="1.5" points="251.33,-175.97 243.45,-172.85 247.67,-180.2 251.33,-175.97"/>
<text xml:space="preserve" text-anchor="middle" x="326.25" y="-202.85" font-family="Microsoft YaHei" font-size="12.00">汇报进度</text>
</g>
<!-- WorkerA&#45;&gt;MinIO -->
<g id="edge9" class="edge">
<title>WorkerA&#45;&gt;MinIO</title>
<path fill="none" stroke="#475569" stroke-width="1.5" d="M486.48,-240.71C485.58,-232.42 484.69,-222.92 484.25,-214.25 483.7,-203.54 484.03,-191.97 484.72,-181.21"/>
<polygon fill="#475569" stroke="#475569" stroke-width="1.5" points="487.5,-181.66 485.31,-173.47 481.91,-181.23 487.5,-181.66"/>
<text xml:space="preserve" text-anchor="middle" x="520.25" y="-202.85" font-family="Microsoft YaHei" font-size="12.00">读写任务文件</text>
</g>
<!-- Higress -->
<g id="node7" class="node">
<title>Higress</title>
<path fill="#fee2e2" stroke="#334155" stroke-width="1.6" d="M847.12,-170.75C847.12,-170.75 737.38,-170.75 737.38,-170.75 731.38,-170.75 725.38,-164.75 725.38,-158.75 725.38,-158.75 725.38,-118.5 725.38,-118.5 725.38,-112.5 731.38,-106.5 737.38,-106.5 737.38,-106.5 847.12,-106.5 847.12,-106.5 853.12,-106.5 859.12,-112.5 859.12,-118.5 859.12,-118.5 859.12,-158.75 859.12,-158.75 859.12,-164.75 853.12,-170.75 847.12,-170.75"/>
<text xml:space="preserve" text-anchor="middle" x="792.25" y="-153.45" font-family="Microsoft YaHei" font-size="14.00">Higress</text>
<text xml:space="preserve" text-anchor="middle" x="792.25" y="-134.7" font-family="Microsoft YaHei" font-size="14.00">能力线</text>
<text xml:space="preserve" text-anchor="middle" x="792.25" y="-115.95" font-family="Microsoft YaHei" font-size="14.00">LLM / MCP / 权限</text>
</g>
<!-- WorkerA&#45;&gt;Higress -->
<g id="edge11" class="edge">
<title>WorkerA&#45;&gt;Higress</title>
<path fill="none" stroke="#475569" stroke-width="1.5" d="M555.47,-245.1C593.37,-234.55 636.93,-221.83 655.25,-214.25 669.94,-208.18 699.95,-191.99 728.15,-176.23"/>
<polygon fill="#475569" stroke="#475569" stroke-width="1.5" points="729.24,-178.84 734.84,-172.48 726.5,-173.95 729.24,-178.84"/>
<text xml:space="preserve" text-anchor="middle" x="712.46" y="-202.85" font-family="Microsoft YaHei" font-size="12.00">调用能力</text>
</g>
<!-- WorkerB&#45;&gt;Matrix -->
<g id="edge7" class="edge">
<title>WorkerB&#45;&gt;Matrix</title>
<path fill="none" stroke="#475569" stroke-width="1.5" stroke-dasharray="5,2" d="M634.43,-240.72C615.44,-226.16 588.74,-208 562.25,-197.75 490.08,-169.82 466.6,-183.31 390.25,-170.75 355.61,-165.05 317.28,-158.5 284.85,-152.88"/>
<polygon fill="#475569" stroke="#475569" stroke-width="1.5" points="285.58,-150.16 277.22,-151.55 284.62,-155.68 285.58,-150.16"/>
<text xml:space="preserve" text-anchor="middle" x="618.25" y="-202.85" font-family="Microsoft YaHei" font-size="12.00">同步结果</text>
</g>
<!-- WorkerB&#45;&gt;MinIO -->
<g id="edge10" class="edge">
<title>WorkerB&#45;&gt;MinIO</title>
<path fill="none" stroke="#475569" stroke-width="1.5" stroke-dasharray="5,2" d="M724.27,-240.55C745.92,-229.33 761.7,-214.55 748.25,-197.75 727.16,-171.4 645.41,-156.17 579.32,-147.97"/>
<polygon fill="#475569" stroke="#475569" stroke-width="1.5" points="579.81,-145.21 571.53,-147.03 579.14,-150.77 579.81,-145.21"/>
<text xml:space="preserve" text-anchor="middle" x="777.21" y="-202.85" font-family="Microsoft YaHei" font-size="12.00">同步结果</text>
</g>
<!-- WorkerB&#45;&gt;Higress -->
<g id="edge12" class="edge">
<title>WorkerB&#45;&gt;Higress</title>
<path fill="none" stroke="#475569" stroke-width="1.5" stroke-dasharray="5,2" d="M727.76,-253.55C773.05,-245.6 827.23,-232.57 841.25,-214.25 849.67,-203.25 846.24,-190.83 838.2,-179.33"/>
<polygon fill="#475569" stroke="#475569" stroke-width="1.5" points="840.58,-177.83 833.41,-173.32 836.21,-181.32 840.58,-177.83"/>
<text xml:space="preserve" text-anchor="middle" x="882.13" y="-202.85" font-family="Microsoft YaHei" font-size="12.00">访问受控能力</text>
</g>
<!-- LLM -->
<g id="node8" class="node">
<title>LLM</title>
<path fill="#f8fafc" stroke="#334155" stroke-width="1.6" d="M861.38,-36C861.38,-36 723.12,-36 723.12,-36 717.12,-36 711.12,-30 711.12,-24 711.12,-24 711.12,-12 711.12,-12 711.12,-6 717.12,0 723.12,0 723.12,0 861.38,0 861.38,0 867.38,0 873.38,-6 873.38,-12 873.38,-12 873.38,-24 873.38,-24 873.38,-30 867.38,-36 861.38,-36"/>
<text xml:space="preserve" text-anchor="middle" x="792.25" y="-14.07" font-family="Microsoft YaHei" font-size="14.00">LLM / MCP / 外部服务</text>
</g>
<!-- Higress&#45;&gt;LLM -->
<g id="edge13" class="edge">
<title>Higress&#45;&gt;LLM</title>
<path fill="none" stroke="#475569" stroke-width="1.5" d="M792.25,-105.84C792.25,-87.42 792.25,-64.46 792.25,-46.77"/>
<polygon fill="#475569" stroke="#475569" stroke-width="1.5" points="795.05,-46.8 792.25,-38.8 789.45,-46.8 795.05,-46.8"/>
<text xml:space="preserve" text-anchor="middle" x="846.62" y="-68.1" font-family="Microsoft YaHei" font-size="12.00">统一代理 / 权限控制</text>
</g>
</g>
</svg>
