<?xml version="1.0" encoding="UTF-8" standalone="no"?>
<!DOCTYPE svg PUBLIC "-//W3C//DTD SVG 1.1//EN"
 "http://www.w3.org/Graphics/SVG/1.1/DTD/svg11.dtd">
<!-- Generated by graphviz version 14.1.2 (20260124.0452)
 -->
<!-- Title: SecurityBoundary Pages: 1 -->
<svg width="573pt" height="607pt"
 viewBox="0.00 0.00 573.00 607.00" xmlns="http://www.w3.org/2000/svg" xmlns:xlink="http://www.w3.org/1999/xlink">
<g id="graph0" class="graph" transform="scale(1 1) rotate(0) translate(21.6 585.1)">
<title>SecurityBoundary</title>
<polygon fill="white" stroke="none" points="-21.6,21.6 -21.6,-585.1 551.1,-585.1 551.1,21.6 -21.6,21.6"/>
<text xml:space="preserve" text-anchor="middle" x="264.75" y="-538.6" font-family="Microsoft YaHei" font-size="22.00">HiClaw 安全边界图</text>
<!-- Worker -->
<g id="node1" class="node">
<title>Worker</title>
<path fill="#ede9fe" stroke="#334155" stroke-width="1.6" d="M340.5,-405.5C340.5,-405.5 191.75,-405.5 191.75,-405.5 185.75,-405.5 179.75,-399.5 179.75,-393.5 179.75,-393.5 179.75,-372 179.75,-372 179.75,-366 185.75,-360 191.75,-360 191.75,-360 340.5,-360 340.5,-360 346.5,-360 352.5,-366 352.5,-372 352.5,-372 352.5,-393.5 352.5,-393.5 352.5,-399.5 346.5,-405.5 340.5,-405.5"/>
<text xml:space="preserve" text-anchor="middle" x="266.12" y="-388.2" font-family="Microsoft YaHei" font-size="14.00">Worker</text>
<text xml:space="preserve" text-anchor="middle" x="266.12" y="-369.45" font-family="Microsoft YaHei" font-size="14.00">只持有 consumer token</text>
</g>
<!-- Higress -->
<g id="node3" class="node">
<title>Higress</title>
<path fill="#fee2e2" stroke="#334155" stroke-width="1.6" d="M308.62,-165.5C308.62,-165.5 187.62,-165.5 187.62,-165.5 181.62,-165.5 175.62,-159.5 175.62,-153.5 175.62,-153.5 175.62,-132 175.62,-132 175.62,-126 181.62,-120 187.62,-120 187.62,-120 308.62,-120 308.62,-120 314.62,-120 320.62,-126 320.62,-132 320.62,-132 320.62,-153.5 320.62,-153.5 320.62,-159.5 314.62,-165.5 308.62,-165.5"/>
<text xml:space="preserve" text-anchor="middle" x="248.12" y="-148.2" font-family="Microsoft YaHei" font-size="14.00">Higress</text>
<text xml:space="preserve" text-anchor="middle" x="248.12" y="-129.45" font-family="Microsoft YaHei" font-size="14.00">统一代理 / 权限控制</text>
</g>
<!-- Worker&#45;&gt;Higress -->
<g id="edge2" class="edge">
<title>Worker&#45;&gt;Higress</title>
<path fill="none" stroke="#475569" stroke-width="1.5" d="M266.85,-359.44C267.66,-324.22 267.99,-253.66 260.12,-194.5 259.3,-188.26 258.03,-181.66 256.63,-175.36"/>
<polygon fill="#475569" stroke="#475569" stroke-width="1.5" points="259.46,-175.15 254.88,-168.01 254.01,-176.44 259.46,-175.15"/>
<text xml:space="preserve" text-anchor="middle" x="316.97" y="-259.6" font-family="Microsoft YaHei" font-size="12.00">带 token 发起请求</text>
</g>
<!-- MCP -->
<g id="node4" class="node">
<title>MCP</title>
<path fill="#f8fafc" stroke="#334155" stroke-width="1.6" d="M186.25,-45.5C186.25,-45.5 12,-45.5 12,-45.5 6,-45.5 0,-39.5 0,-33.5 0,-33.5 0,-12 0,-12 0,-6 6,0 12,0 12,0 186.25,0 186.25,0 192.25,0 198.25,-6 198.25,-12 198.25,-12 198.25,-33.5 198.25,-33.5 198.25,-39.5 192.25,-45.5 186.25,-45.5"/>
<text xml:space="preserve" text-anchor="middle" x="99.12" y="-28.2" font-family="Microsoft YaHei" font-size="14.00">MCP 服务</text>
<text xml:space="preserve" text-anchor="middle" x="99.12" y="-9.45" font-family="Microsoft YaHei" font-size="14.00">GitHub / Notion / 其他工具</text>
</g>
<!-- Worker&#45;&gt;MCP -->
<g id="edge7" class="edge">
<title>Worker&#45;&gt;MCP</title>
<path fill="none" stroke="#dc2626" stroke-width="1.5" stroke-dasharray="5,2" d="M179.03,-368.22C129.91,-355.65 72.45,-331.54 42.12,-285.5 -7.44,-210.25 50.67,-98.98 81.86,-49.31"/>
<polygon fill="#dc2626" stroke="#dc2626" stroke-width="1.5" points="80.07,-44.66 86.82,-48.94 85.97,-50.29 79.21,-46.02 80.07,-44.66"/>
<polyline fill="none" stroke="#dc2626" stroke-width="1.5" points="83.87,-46.13 81.73,-49.51"/>
<text xml:space="preserve" text-anchor="middle" x="78.05" y="-199.6" font-family="Microsoft YaHei" font-size="12.00">不直接访问真实凭据</text>
</g>
<!-- LLM -->
<g id="node5" class="node">
<title>LLM</title>
<path fill="#f8fafc" stroke="#334155" stroke-width="1.6" d="M517.5,-45.5C517.5,-45.5 320.75,-45.5 320.75,-45.5 314.75,-45.5 308.75,-39.5 308.75,-33.5 308.75,-33.5 308.75,-12 308.75,-12 308.75,-6 314.75,0 320.75,0 320.75,0 517.5,0 517.5,0 523.5,0 529.5,-6 529.5,-12 529.5,-12 529.5,-33.5 529.5,-33.5 529.5,-39.5 523.5,-45.5 517.5,-45.5"/>
<text xml:space="preserve" text-anchor="middle" x="419.12" y="-28.2" font-family="Microsoft YaHei" font-size="14.00">LLM 服务</text>
<text xml:space="preserve" text-anchor="middle" x="419.12" y="-9.45" font-family="Microsoft YaHei" font-size="14.00">OpenAI Compatible / 其他模型</text>
</g>
<!-- Worker&#45;&gt;LLM -->
<g id="edge8" class="edge">
<title>Worker&#45;&gt;LLM</title>
<path fill="none" stroke="#dc2626" stroke-width="1.5" stroke-dasharray="5,2" d="M303.14,-359.25C328.01,-342.15 359.38,-316.34 377.12,-285.5 421.31,-208.72 422.8,-99.42 420.81,-49.91"/>
<polygon fill="#dc2626" stroke="#dc2626" stroke-width="1.5" points="416.69,-47.14 424.68,-46.79 424.75,-48.39 416.76,-48.74 416.69,-47.14"/>
<polyline fill="none" stroke="#dc2626" stroke-width="1.5" points="420.65,-46.17 420.82,-50.16"/>
<text xml:space="preserve" text-anchor="middle" x="463.59" y="-199.6" font-family="Microsoft YaHei" font-size="12.00">不直接持有 API Key</text>
</g>
<!-- Secrets -->
<g id="node6" class="node">
<title>Secrets</title>
<path fill="#fde68a" stroke="#334155" stroke-width="1.6" d="M210.38,-285.5C210.38,-285.5 75.88,-285.5 75.88,-285.5 69.88,-285.5 63.88,-279.5 63.88,-273.5 63.88,-273.5 63.88,-252 63.88,-252 63.88,-246 69.88,-240 75.88,-240 75.88,-240 210.38,-240 210.38,-240 216.38,-240 222.38,-246 222.38,-252 222.38,-252 222.38,-273.5 222.38,-273.5 222.38,-279.5 216.38,-285.5 210.38,-285.5"/>
<text xml:space="preserve" text-anchor="middle" x="143.12" y="-268.2" font-family="Microsoft YaHei" font-size="14.00">真实密钥</text>
<text xml:space="preserve" text-anchor="middle" x="143.12" y="-249.45" font-family="Microsoft YaHei" font-size="14.00">GitHub PAT / API Key</text>
</g>
<!-- Worker&#45;&gt;Secrets -->
<g id="edge6" class="edge">
<title>Worker&#45;&gt;Secrets</title>
<path fill="none" stroke="#dc2626" stroke-width="1.5" stroke-dasharray="5,2" d="M242.7,-359.28C221.75,-339.18 191.09,-309.77 169.34,-288.9"/>
<polygon fill="#dc2626" stroke="#dc2626" stroke-width="1.5" points="164.27,-289.58 169.81,-283.81 170.96,-284.91 165.43,-290.69 164.27,-289.58"/>
<polyline fill="none" stroke="#dc2626" stroke-width="1.5" points="166.46,-286.14 169.35,-288.91"/>
<text xml:space="preserve" text-anchor="middle" x="229.99" y="-319.6" font-family="Microsoft YaHei" font-size="12.00">不可见</text>
</g>
<!-- Manager -->
<g id="node2" class="node">
<title>Manager</title>
<path fill="#fef3c7" stroke="#334155" stroke-width="1.6" d="M304.88,-525.5C304.88,-525.5 227.38,-525.5 227.38,-525.5 221.38,-525.5 215.38,-519.5 215.38,-513.5 215.38,-513.5 215.38,-492 215.38,-492 215.38,-486 221.38,-480 227.38,-480 227.38,-480 304.88,-480 304.88,-480 310.88,-480 316.88,-486 316.88,-492 316.88,-492 316.88,-513.5 316.88,-513.5 316.88,-519.5 310.88,-525.5 304.88,-525.5"/>
<text xml:space="preserve" text-anchor="middle" x="266.12" y="-508.2" font-family="Microsoft YaHei" font-size="14.00">Manager</text>
<text xml:space="preserve" text-anchor="middle" x="266.12" y="-489.45" font-family="Microsoft YaHei" font-size="14.00">决定授权范围</text>
</g>
<!-- Manager&#45;&gt;Worker -->
<g id="edge1" class="edge">
<title>Manager&#45;&gt;Worker</title>
<path fill="none" stroke="#475569" stroke-width="1.5" d="M266.12,-479.28C266.12,-461.48 266.12,-436.37 266.12,-416.36"/>
<polygon fill="#475569" stroke="#475569" stroke-width="1.5" points="268.93,-416.41 266.13,-408.41 263.33,-416.41 268.93,-416.41"/>
<text xml:space="preserve" text-anchor="middle" x="308.12" y="-439.6" font-family="Microsoft YaHei" font-size="12.00">分配角色与能力</text>
</g>
<!-- Higress&#45;&gt;MCP -->
<g id="edge3" class="edge">
<title>Higress&#45;&gt;MCP</title>
<path fill="none" stroke="#475569" stroke-width="1.5" d="M219.75,-119.28C195.72,-100.25 161.14,-72.86 135.16,-52.29"/>
<polygon fill="#475569" stroke="#475569" stroke-width="1.5" points="137.19,-50.32 129.18,-47.55 133.71,-54.71 137.19,-50.32"/>
<text xml:space="preserve" text-anchor="middle" x="212.55" y="-79.6" font-family="Microsoft YaHei" font-size="12.00">按授权转发</text>
</g>
<!-- Higress&#45;&gt;LLM -->
<g id="edge4" class="edge">
<title>Higress&#45;&gt;LLM</title>
<path fill="none" stroke="#475569" stroke-width="1.5" d="M280.69,-119.28C308.5,-100.09 348.64,-72.39 378.54,-51.76"/>
<polygon fill="#475569" stroke="#475569" stroke-width="1.5" points="379.82,-54.28 384.81,-47.43 376.64,-49.67 379.82,-54.28"/>
<text xml:space="preserve" text-anchor="middle" x="373.86" y="-79.6" font-family="Microsoft YaHei" font-size="12.00">按授权转发</text>
</g>
<!-- Secrets&#45;&gt;Higress -->
<g id="edge5" class="edge">
<title>Secrets&#45;&gt;Higress</title>
<path fill="none" stroke="#475569" stroke-width="1.5" d="M169.79,-231.78C187.97,-211.35 211.66,-184.73 228.2,-166.14"/>
<polygon fill="#475569" stroke="#475569" stroke-width="1.5" points="167.86,-229.74 164.63,-237.58 172.04,-233.47 167.86,-229.74"/>
<text xml:space="preserve" text-anchor="middle" x="225.91" y="-199.6" font-family="Microsoft YaHei" font-size="12.00">集中保存</text>
</g>
</g>
</svg>
