<?xml version="1.0" encoding="UTF-8" standalone="no"?>
<!DOCTYPE svg PUBLIC "-//W3C//DTD SVG 1.1//EN"
 "http://www.w3.org/Graphics/SVG/1.1/DTD/svg11.dtd">
<!-- Generated by graphviz version 14.1.2 (20260124.0452)
 -->
<!-- Title: TaskLifecycle Pages: 1 -->
<svg width="1172pt" height="202pt"
 viewBox="0.00 0.00 1172.00 202.00" xmlns="http://www.w3.org/2000/svg" xmlns:xlink="http://www.w3.org/1999/xlink">
<g id="graph0" class="graph" transform="scale(1 1) rotate(0) translate(21.6 180.57)">
<title>TaskLifecycle</title>
<polygon fill="white" stroke="none" points="-21.6,21.6 -21.6,-180.57 1150.85,-180.57 1150.85,21.6 -21.6,21.6"/>
<text xml:space="preserve" text-anchor="middle" x="564.62" y="-134.07" font-family="Microsoft YaHei" font-size="22.00">HiClaw 任务流转图</text>
<!-- Human -->
<g id="node1" class="node">
<title>Human</title>
<path fill="#fff7ed" stroke="#334155" stroke-width="1.6" d="M133,-53.22C133,-53.22 12,-53.22 12,-53.22 6,-53.22 0,-47.22 0,-41.22 0,-41.22 0,-19.72 0,-19.72 0,-13.72 6,-7.72 12,-7.72 12,-7.72 133,-7.72 133,-7.72 139,-7.72 145,-13.72 145,-19.72 145,-19.72 145,-41.22 145,-41.22 145,-47.22 139,-53.22 133,-53.22"/>
<text xml:space="preserve" text-anchor="middle" x="72.5" y="-35.92" font-family="Microsoft YaHei" font-size="14.00">人类</text>
<text xml:space="preserve" text-anchor="middle" x="72.5" y="-17.17" font-family="Microsoft YaHei" font-size="14.00">提出需求 / 补充要求</text>
</g>
<!-- Room -->
<g id="node2" class="node">
<title>Room</title>
<path fill="#dcfce7" stroke="#334155" stroke-width="1.6" d="M417.5,-53.22C417.5,-53.22 283,-53.22 283,-53.22 277,-53.22 271,-47.22 271,-41.22 271,-41.22 271,-19.72 271,-19.72 271,-13.72 277,-7.72 283,-7.72 283,-7.72 417.5,-7.72 417.5,-7.72 423.5,-7.72 429.5,-13.72 429.5,-19.72 429.5,-19.72 429.5,-41.22 429.5,-41.22 429.5,-47.22 423.5,-53.22 417.5,-53.22"/>
<text xml:space="preserve" text-anchor="middle" x="350.25" y="-35.92" font-family="Microsoft YaHei" font-size="14.00">Matrix 房间</text>
<text xml:space="preserve" text-anchor="middle" x="350.25" y="-17.17" font-family="Microsoft YaHei" font-size="14.00">沟通、追问、可见协作</text>
</g>
<!-- Human&#45;&gt;Room -->
<g id="edge1" class="edge">
<title>Human&#45;&gt;Room</title>
<path fill="none" stroke="#475569" stroke-width="1.5" d="M145.59,-30.47C180.75,-30.47 223.36,-30.47 260.5,-30.47"/>
<polygon fill="#475569" stroke="#475569" stroke-width="1.5" points="260.04,-33.27 268.04,-30.47 260.04,-27.67 260.04,-33.27"/>
<text xml:space="preserve" text-anchor="middle" x="208" y="-35.57" font-family="Microsoft YaHei" font-size="12.00">发起任务</text>
</g>
<!-- Human&#45;&gt;Room -->
<g id="edge7" class="edge">
<title>Human&#45;&gt;Room</title>
<path fill="none" stroke="#64748b" stroke-width="1.5" stroke-dasharray="5,2" d="M145.68,-8.74C154.48,-6.78 163.4,-5.11 172,-3.97 203.72,0.22 212.24,-0.03 244,-3.97 249.38,-4.64 254.87,-5.49 260.39,-6.47"/>
<polygon fill="#64748b" stroke="#64748b" stroke-width="1.5" points="259.72,-9.19 268.11,-7.95 260.78,-3.7 259.72,-9.19"/>
<text xml:space="preserve" text-anchor="middle" x="208" y="-9.07" font-family="Microsoft YaHei" font-size="12.00">中途补充要求</text>
</g>
<!-- Manager -->
<g id="node3" class="node">
<title>Manager</title>
<path fill="#fef3c7" stroke="#334155" stroke-width="1.6" d="M606.75,-102.22C606.75,-102.22 543.5,-102.22 543.5,-102.22 537.5,-102.22 531.5,-96.22 531.5,-90.22 531.5,-90.22 531.5,-68.72 531.5,-68.72 531.5,-62.72 537.5,-56.72 543.5,-56.72 543.5,-56.72 606.75,-56.72 606.75,-56.72 612.75,-56.72 618.75,-62.72 618.75,-68.72 618.75,-68.72 618.75,-90.22 618.75,-90.22 618.75,-96.22 612.75,-102.22 606.75,-102.22"/>
<text xml:space="preserve" text-anchor="middle" x="575.12" y="-84.92" font-family="Microsoft YaHei" font-size="14.00">Manager</text>
<text xml:space="preserve" text-anchor="middle" x="575.12" y="-66.17" font-family="Microsoft YaHei" font-size="14.00">写任务卡片</text>
</g>
<!-- Room&#45;&gt;Manager -->
<g id="edge2" class="edge">
<title>Room&#45;&gt;Manager</title>
<path fill="none" stroke="#475569" stroke-width="1.5" d="M430.14,-47.81C460.36,-54.46 494.09,-61.87 521.3,-67.86"/>
<polygon fill="#475569" stroke="#475569" stroke-width="1.5" points="520.38,-70.52 528.79,-69.5 521.58,-65.05 520.38,-70.52"/>
<text xml:space="preserve" text-anchor="middle" x="480.5" y="-68.72" font-family="Microsoft YaHei" font-size="12.00">接收需求</text>
</g>
<!-- Room&#45;&gt;Manager -->
<g id="edge8" class="edge">
<title>Room&#45;&gt;Manager</title>
<path fill="none" stroke="#64748b" stroke-width="1.5" stroke-dasharray="5,2" d="M430.29,-20.12C454.59,-19.46 481.09,-21.37 504.5,-28.97 517.99,-33.35 531.05,-41.42 542.14,-49.85"/>
<polygon fill="#64748b" stroke="#64748b" stroke-width="1.5" points="540.08,-51.79 548.08,-54.59 543.57,-47.41 540.08,-51.79"/>
<text xml:space="preserve" text-anchor="middle" x="480.5" y="-34.07" font-family="Microsoft YaHei" font-size="12.00">更新任务</text>
</g>
<!-- Task -->
<g id="node4" class="node">
<title>Task</title>
<path fill="#dbeafe" stroke="#334155" stroke-width="1.6" d="M837.25,-120.97C837.25,-120.97 780,-120.97 780,-120.97 774,-120.97 768,-114.97 768,-108.97 768,-108.97 768,-49.97 768,-49.97 768,-43.97 774,-37.97 780,-37.97 780,-37.97 837.25,-37.97 837.25,-37.97 843.25,-37.97 849.25,-43.97 849.25,-49.97 849.25,-49.97 849.25,-108.97 849.25,-108.97 849.25,-114.97 843.25,-120.97 837.25,-120.97"/>
<text xml:space="preserve" text-anchor="middle" x="808.62" y="-103.67" font-family="Microsoft YaHei" font-size="14.00">任务目录</text>
<text xml:space="preserve" text-anchor="middle" x="808.62" y="-84.92" font-family="Microsoft YaHei" font-size="14.00">meta.json</text>
<text xml:space="preserve" text-anchor="middle" x="808.62" y="-66.17" font-family="Microsoft YaHei" font-size="14.00">spec.md</text>
<text xml:space="preserve" text-anchor="middle" x="808.62" y="-47.42" font-family="Microsoft YaHei" font-size="14.00">result.md</text>
</g>
<!-- Manager&#45;&gt;Task -->
<g id="edge3" class="edge">
<title>Manager&#45;&gt;Task</title>
<path fill="none" stroke="#475569" stroke-width="1.5" d="M619.4,-79.47C658.49,-79.47 716.03,-79.47 757.19,-79.47"/>
<polygon fill="#475569" stroke="#475569" stroke-width="1.5" points="757.01,-82.27 765.01,-79.47 757.01,-76.67 757.01,-82.27"/>
<text xml:space="preserve" text-anchor="middle" x="693.38" y="-84.57" font-family="Microsoft YaHei" font-size="12.00">创建 spec / meta</text>
</g>
<!-- Worker -->
<g id="node5" class="node">
<title>Worker</title>
<path fill="#ede9fe" stroke="#334155" stroke-width="1.6" d="M1117.25,-53.22C1117.25,-53.22 996.25,-53.22 996.25,-53.22 990.25,-53.22 984.25,-47.22 984.25,-41.22 984.25,-41.22 984.25,-19.72 984.25,-19.72 984.25,-13.72 990.25,-7.72 996.25,-7.72 996.25,-7.72 1117.25,-7.72 1117.25,-7.72 1123.25,-7.72 1129.25,-13.72 1129.25,-19.72 1129.25,-19.72 1129.25,-41.22 1129.25,-41.22 1129.25,-47.22 1123.25,-53.22 1117.25,-53.22"/>
<text xml:space="preserve" text-anchor="middle" x="1056.75" y="-35.92" font-family="Microsoft YaHei" font-size="14.00">Worker</text>
<text xml:space="preserve" text-anchor="middle" x="1056.75" y="-17.17" font-family="Microsoft YaHei" font-size="14.00">执行任务 / 产出结果</text>
</g>
<!-- Task&#45;&gt;Worker -->
<g id="edge4" class="edge">
<title>Task&#45;&gt;Worker</title>
<path fill="none" stroke="#475569" stroke-width="1.5" d="M849.99,-71.43C883.45,-64.77 932.09,-55.09 973.67,-46.81"/>
<polygon fill="#475569" stroke="#475569" stroke-width="1.5" points="974,-49.6 981.3,-45.29 972.91,-44.11 974,-49.6"/>
<text xml:space="preserve" text-anchor="middle" x="916.75" y="-70.09" font-family="Microsoft YaHei" font-size="12.00">读取任务说明</text>
</g>
<!-- Worker&#45;&gt;Room -->
<g id="edge6" class="edge">
<title>Worker&#45;&gt;Room</title>
<path fill="none" stroke="#475569" stroke-width="1.5" d="M983.58,-8.33C974.78,-6.33 965.86,-4.63 957.25,-3.47 921.57,1.33 912.25,-3.17 876.25,-3.47 689.67,-5.02 642.11,8.57 456.5,-10.47 451.12,-11.02 445.61,-11.71 440.06,-12.48"/>
<polygon fill="#475569" stroke="#475569" stroke-width="1.5" points="439.8,-9.69 432.3,-13.65 440.63,-15.23 439.8,-9.69"/>
<text xml:space="preserve" text-anchor="middle" x="693.38" y="-7.17" font-family="Microsoft YaHei" font-size="12.00">汇报进度 / 完成</text>
</g>
<!-- Worker&#45;&gt;Task -->
<g id="edge5" class="edge">
<title>Worker&#45;&gt;Task</title>
<path fill="none" stroke="#475569" stroke-width="1.5" d="M983.5,-15.67C949.96,-11.84 910.12,-11.71 876.25,-23.97 869.97,-26.24 863.87,-29.39 858.07,-33.05"/>
<polygon fill="#475569" stroke="#475569" stroke-width="1.5" points="856.69,-30.6 851.68,-37.44 859.86,-35.22 856.69,-30.6"/>
<text xml:space="preserve" text-anchor="middle" x="916.75" y="-29.07" font-family="Microsoft YaHei" font-size="12.00">写入 result.md</text>
</g>
</g>
</svg>
